<svg width="72" height="72" viewBox="0 0 72 72" fill="none" xmlns="http://www.w3.org/2000/svg">
<mask id="path-1-outside-1" maskUnits="userSpaceOnUse" x="20.3453" y="8.49086" width="31" height="56" fill="black">
<rect fill="white" x="20.3453" y="8.49086" width="31" height="56"/>
<path fill-rule="evenodd" clip-rule="evenodd" d="M38.4584 13.035C38.4584 13.5555 38.3021 14.0394 38.0339 14.4425C40.7428 15.8777 42.6986 19.744 42.6986 22.111C42.6986 24.3194 40.9961 26.2147 38.5679 27.0279H41.0025V30.4078H42.7883V34.6481H41.0025V48.6533H45.6668V55.4377L45.2428 55.4377C47.5846 55.4377 49.4831 57.3362 49.4831 59.678V62.2222H22.3453V59.678C22.3453 57.3362 24.2438 55.4377 26.5856 55.4377L26.1616 55.4377V48.6533H30.8259V34.6481H29.0415V30.4078H30.8259V27.0279H33.2605C30.8323 26.2147 29.1298 24.3194 29.1298 22.111C29.1298 19.744 31.0856 15.8777 33.7945 14.4425C33.5263 14.0394 33.37 13.5555 33.37 13.035C33.37 11.6299 34.5091 10.4909 35.9142 10.4909C37.3193 10.4909 38.4584 11.6299 38.4584 13.035Z"/>
</mask>
<path fill-rule="evenodd" clip-rule="evenodd" d="M38.4584 13.035C38.4584 13.5555 38.3021 14.0394 38.0339 14.4425C40.7428 15.8777 42.6986 19.744 42.6986 22.111C42.6986 24.3194 40.9961 26.2147 38.5679 27.0279H41.0025V30.4078H42.7883V34.6481H41.0025V48.6533H45.6668V55.4377L45.2428 55.4377C47.5846 55.4377 49.4831 57.3362 49.4831 59.678V62.2222H22.3453V59.678C22.3453 57.3362 24.2438 55.4377 26.5856 55.4377L26.1616 55.4377V48.6533H30.8259V34.6481H29.0415V30.4078H30.8259V27.0279H33.2605C30.8323 26.2147 29.1298 24.3194 29.1298 22.111C29.1298 19.744 31.0856 15.8777 33.7945 14.4425C33.5263 14.0394 33.37 13.5555 33.37 13.035C33.37 11.6299 34.5091 10.4909 35.9142 10.4909C37.3193 10.4909 38.4584 11.6299 38.4584 13.035Z" fill="#4E3510"/>
<path d="M38.0339 14.4425L36.5509 13.4558L35.4605 15.0948L37.2 16.0164L38.0339 14.4425ZM38.5679 27.0279L38.0023 25.3389L38.5679 28.8092V27.0279ZM41.0025 27.0279H42.7838V25.2467H41.0025V27.0279ZM41.0025 30.4078H39.2213V32.1891H41.0025V30.4078ZM42.7883 30.4078H44.5695V28.6266H42.7883V30.4078ZM42.7883 34.6481V36.4293H44.5695V34.6481H42.7883ZM41.0025 34.6481V32.8668H39.2213V34.6481H41.0025ZM41.0025 48.6533H39.2213V50.4346H41.0025V48.6533ZM45.6668 48.6533H47.4481V46.8721H45.6668V48.6533ZM45.6668 55.4377L45.6669 57.219L47.4481 57.219V55.4377H45.6668ZM45.2428 55.4377L45.2428 53.6565L45.2428 57.219V55.4377ZM49.4831 62.2222V64.0034H51.2643V62.2222H49.4831ZM22.3453 62.2222H20.5641V64.0034H22.3453V62.2222ZM26.5856 55.4377V57.219L26.5856 53.6565L26.5856 55.4377ZM26.1616 55.4377H24.3803V57.219L26.1616 57.219L26.1616 55.4377ZM26.1616 48.6533V46.8721H24.3803V48.6533H26.1616ZM30.8259 48.6533V50.4346H32.6071V48.6533H30.8259ZM30.8259 34.6481H32.6071V32.8668H30.8259V34.6481ZM29.0415 34.6481H27.2602V36.4293H29.0415V34.6481ZM29.0415 30.4078V28.6266H27.2602V30.4078H29.0415ZM30.8259 30.4078V32.1891H32.6071V30.4078H30.8259ZM30.8259 27.0279V25.2467H29.0446V27.0279H30.8259ZM33.2605 27.0279V28.8092L33.8262 25.3389L33.2605 27.0279ZM33.7945 14.4425L34.6284 16.0164L36.3679 15.0948L35.2775 13.4558L33.7945 14.4425ZM39.517 15.4291C39.9736 14.7428 40.2396 13.9173 40.2396 13.035H36.6771C36.6771 13.1936 36.6306 13.336 36.5509 13.4558L39.517 15.4291ZM44.4799 22.111C44.4799 20.5169 43.851 18.6505 42.927 17.0407C41.9969 15.4202 40.6167 13.7951 38.8679 12.8685L37.2 16.0164C38.1601 16.5251 39.1122 17.5508 39.8372 18.814C40.5684 20.0879 40.9174 21.3381 40.9174 22.111H44.4799ZM39.1336 28.717C42.0405 27.7434 44.4799 25.3172 44.4799 22.111H40.9174C40.9174 23.3216 39.9517 24.686 38.0023 25.3389L39.1336 28.717ZM41.0025 25.2467H38.5679V28.8092H41.0025V25.2467ZM42.7838 30.4078V27.0279H39.2213V30.4078H42.7838ZM41.0025 32.1891H42.7883V28.6266H41.0025V32.1891ZM41.007 30.4078V34.6481H44.5695V30.4078H41.007ZM42.7883 32.8668H41.0025V36.4293H42.7883V32.8668ZM42.7838 48.6533V34.6481H39.2213V48.6533H42.7838ZM45.6668 46.8721H41.0025V50.4346H45.6668V46.8721ZM47.4481 55.4377V48.6533H43.8856V55.4377H47.4481ZM45.2428 57.219L45.6669 57.219L45.6668 53.6565L45.2428 53.6565L45.2428 57.219ZM51.2643 59.678C51.2643 56.3524 48.5684 53.6565 45.2428 53.6565V57.219C46.6009 57.219 47.7018 58.3199 47.7018 59.678H51.2643ZM51.2643 62.2222V59.678H47.7018V62.2222H51.2643ZM22.3453 64.0034H49.4831V60.4409H22.3453V64.0034ZM20.5641 59.678V62.2222H24.1266V59.678H20.5641ZM26.5856 53.6565C23.26 53.6565 20.5641 56.3524 20.5641 59.678H24.1266C24.1266 58.3199 25.2275 57.219 26.5856 57.219V53.6565ZM26.1616 57.219L26.5856 57.219L26.5856 53.6565L26.1616 53.6565L26.1616 57.219ZM24.3803 48.6533V55.4377H27.9428V48.6533H24.3803ZM30.8259 46.8721H26.1616V50.4346H30.8259V46.8721ZM29.0446 34.6481V48.6533H32.6071V34.6481H29.0446ZM30.8259 32.8668H29.0415V36.4293H30.8259V32.8668ZM30.8227 34.6481V30.4078H27.2602V34.6481H30.8227ZM29.0415 32.1891H30.8259V28.6266H29.0415V32.1891ZM29.0446 27.0279V30.4078H32.6071V27.0279H29.0446ZM33.2605 25.2467H30.8259V28.8092H33.2605V25.2467ZM27.3485 22.111C27.3485 25.3172 29.7879 27.7434 32.6948 28.717L33.8262 25.3389C31.8768 24.686 30.911 23.3216 30.911 22.111H27.3485ZM32.9605 12.8685C31.2118 13.7951 29.8315 15.4202 28.9014 17.0407C27.9774 18.6505 27.3485 20.5169 27.3485 22.111H30.911C30.911 21.3381 31.2601 20.0879 31.9912 18.8141C32.7163 17.5508 33.6684 16.5251 34.6284 16.0164L32.9605 12.8685ZM31.5888 13.035C31.5888 13.9173 31.8548 14.7428 32.3114 15.4291L35.2775 13.4558C35.1978 13.336 35.1513 13.1936 35.1513 13.035H31.5888ZM35.9142 8.70961C33.5253 8.70961 31.5888 10.6462 31.5888 13.035H35.1513C35.1513 12.6137 35.4929 12.2721 35.9142 12.2721V8.70961ZM40.2396 13.035C40.2396 10.6462 38.3031 8.70961 35.9142 8.70961V12.2721C36.3355 12.2721 36.6771 12.6137 36.6771 13.035H40.2396Z" fill="#E3941E" mask="url(#path-1-outside-1)"/>
</svg>
