<svg width="72" height="72" viewBox="0 0 72 72" fill="none" xmlns="http://www.w3.org/2000/svg">
<mask id="path-1-outside-1" maskUnits="userSpaceOnUse" x="20.7203" y="8.11588" width="31" height="56" fill="black">
<rect fill="white" x="20.7203" y="8.11588" width="31" height="56"/>
<path fill-rule="evenodd" clip-rule="evenodd" d="M38.8334 12.66C38.8334 13.1805 38.6771 13.6644 38.4089 14.0675C41.1178 15.5028 43.0736 19.3691 43.0736 21.736C43.0736 23.9444 41.3711 25.8397 38.9429 26.6529H41.3775V30.0328H43.1632V34.2731H41.3775V48.2783H46.0418V55.0627H45.6178C47.9596 55.0627 49.8581 56.9612 49.8581 59.303V61.8472H22.7203V59.303C22.7203 56.9612 24.6188 55.0627 26.9606 55.0627H26.5366V48.2783H31.2009V34.2731H29.4164V30.0328H31.2009V26.6529H33.6355C31.2073 25.8397 29.5048 23.9444 29.5048 21.736C29.5048 19.3691 31.4606 15.5028 34.1695 14.0675C33.9013 13.6644 33.745 13.1805 33.745 12.66C33.745 11.2549 34.8841 10.1159 36.2892 10.1159C37.6943 10.1159 38.8334 11.2549 38.8334 12.66Z"/>
</mask>
<path fill-rule="evenodd" clip-rule="evenodd" d="M38.8334 12.66C38.8334 13.1805 38.6771 13.6644 38.4089 14.0675C41.1178 15.5028 43.0736 19.3691 43.0736 21.736C43.0736 23.9444 41.3711 25.8397 38.9429 26.6529H41.3775V30.0328H43.1632V34.2731H41.3775V48.2783H46.0418V55.0627H45.6178C47.9596 55.0627 49.8581 56.9612 49.8581 59.303V61.8472H22.7203V59.303C22.7203 56.9612 24.6188 55.0627 26.9606 55.0627H26.5366V48.2783H31.2009V34.2731H29.4164V30.0328H31.2009V26.6529H33.6355C31.2073 25.8397 29.5048 23.9444 29.5048 21.736C29.5048 19.3691 31.4606 15.5028 34.1695 14.0675C33.9013 13.6644 33.745 13.1805 33.745 12.66C33.745 11.2549 34.8841 10.1159 36.2892 10.1159C37.6943 10.1159 38.8334 11.2549 38.8334 12.66Z" fill="#591431"/>
<path d="M38.4089 14.0675L36.9259 13.0808L35.8355 14.7198L37.575 15.6414L38.4089 14.0675ZM38.9429 26.6529L38.3773 24.9639L38.9429 28.4342V26.6529ZM41.3775 26.6529H43.1588V24.8717H41.3775V26.6529ZM41.3775 30.0328H39.5963V31.8141H41.3775V30.0328ZM43.1632 30.0328H44.9445V28.2516H43.1632V30.0328ZM43.1632 34.2731V36.0543H44.9445V34.2731H43.1632ZM41.3775 34.2731V32.4918H39.5963V34.2731H41.3775ZM41.3775 48.2783H39.5963V50.0596H41.3775V48.2783ZM46.0418 48.2783H47.8231V46.4971H46.0418V48.2783ZM46.0418 55.0627V56.844H47.8231V55.0627H46.0418ZM49.8581 61.8472V63.6284H51.6393V61.8472H49.8581ZM22.7203 61.8472H20.9391V63.6284H22.7203V61.8472ZM26.5366 55.0627H24.7553V56.844H26.5366V55.0627ZM26.5366 48.2783V46.4971H24.7553V48.2783H26.5366ZM31.2009 48.2783V50.0596H32.9821V48.2783H31.2009ZM31.2009 34.2731H32.9821V32.4918H31.2009V34.2731ZM29.4164 34.2731H27.6352V36.0543H29.4164V34.2731ZM29.4164 30.0328V28.2516H27.6352V30.0328H29.4164ZM31.2009 30.0328V31.8141H32.9821V30.0328H31.2009ZM31.2009 26.6529V24.8717H29.4196V26.6529H31.2009ZM33.6355 26.6529V28.4342L34.2012 24.9639L33.6355 26.6529ZM34.1695 14.0675L35.0034 15.6414L36.7429 14.7198L35.6525 13.0808L34.1695 14.0675ZM39.892 15.0541C40.3486 14.3678 40.6146 13.5423 40.6146 12.66H37.0521C37.0521 12.8186 37.0056 12.961 36.9259 13.0808L39.892 15.0541ZM44.8549 21.736C44.8549 20.142 44.226 18.2756 43.302 16.6657C42.3719 15.0452 40.9917 13.4201 39.2429 12.4935L37.575 15.6414C38.5351 16.1501 39.4872 17.1758 40.2122 18.4391C40.9434 19.7129 41.2924 20.9631 41.2924 21.736H44.8549ZM39.5086 28.342C42.4155 27.3684 44.8549 24.9422 44.8549 21.736H41.2924C41.2924 22.9466 40.3267 24.311 38.3773 24.9639L39.5086 28.342ZM41.3775 24.8717H38.9429V28.4342H41.3775V24.8717ZM43.1588 30.0328V26.6529H39.5963V30.0328H43.1588ZM41.3775 31.8141H43.1632V28.2516H41.3775V31.8141ZM41.382 30.0328V34.2731H44.9445V30.0328H41.382ZM43.1632 32.4918H41.3775V36.0543H43.1632V32.4918ZM43.1588 48.2783V34.2731H39.5963V48.2783H43.1588ZM46.0418 46.4971H41.3775V50.0596H46.0418V46.4971ZM47.8231 55.0627V48.2783H44.2606V55.0627H47.8231ZM45.6178 56.844H46.0418V53.2815H45.6178V56.844ZM51.6393 59.303C51.6393 55.9774 48.9434 53.2815 45.6178 53.2815V56.844C46.9759 56.844 48.0768 57.9449 48.0768 59.303H51.6393ZM51.6393 61.8472V59.303H48.0768V61.8472H51.6393ZM22.7203 63.6284H49.8581V60.0659H22.7203V63.6284ZM20.9391 59.303V61.8472H24.5016V59.303H20.9391ZM26.9606 53.2815C23.635 53.2815 20.9391 55.9774 20.9391 59.303H24.5016C24.5016 57.9449 25.6025 56.844 26.9606 56.844V53.2815ZM26.5366 56.844H26.9606V53.2815H26.5366V56.844ZM24.7553 48.2783V55.0627H28.3178V48.2783H24.7553ZM31.2009 46.4971H26.5366V50.0596H31.2009V46.4971ZM29.4196 34.2731V48.2783H32.9821V34.2731H29.4196ZM31.2009 32.4918H29.4164V36.0543H31.2009V32.4918ZM31.1977 34.2731V30.0328H27.6352V34.2731H31.1977ZM29.4164 31.8141H31.2009V28.2516H29.4164V31.8141ZM29.4196 26.6529V30.0328H32.9821V26.6529H29.4196ZM33.6355 24.8717H31.2009V28.4342H33.6355V24.8717ZM27.7235 21.736C27.7235 24.9422 30.1629 27.3684 33.0698 28.342L34.2012 24.9639C32.2518 24.311 31.286 22.9466 31.286 21.736H27.7235ZM33.3355 12.4935C31.5868 13.4201 30.2065 15.0452 29.2764 16.6657C28.3524 18.2756 27.7235 20.142 27.7235 21.736H31.286C31.286 20.9631 31.6351 19.7129 32.3662 18.4391C33.0913 17.1758 34.0434 16.1501 35.0034 15.6414L33.3355 12.4935ZM31.9638 12.66C31.9638 13.5423 32.2298 14.3678 32.6864 15.0541L35.6525 13.0808C35.5728 12.961 35.5263 12.8186 35.5263 12.66H31.9638ZM36.2892 8.33463C33.9003 8.33463 31.9638 10.2712 31.9638 12.66H35.5263C35.5263 12.2387 35.8679 11.8971 36.2892 11.8971V8.33463ZM40.6146 12.66C40.6146 10.2712 38.6781 8.33463 36.2892 8.33463V11.8971C36.7105 11.8971 37.0521 12.2387 37.0521 12.66H40.6146Z" fill="#EC5092" mask="url(#path-1-outside-1)"/>
</svg>
