<svg width="72" height="72" viewBox="0 0 72 72" fill="none" xmlns="http://www.w3.org/2000/svg">
<mask id="path-1-outside-1" maskUnits="userSpaceOnUse" x="21.2203" y="8.86587" width="31" height="56" fill="black">
<rect fill="white" x="21.2203" y="8.86587" width="31" height="56"/>
<path fill-rule="evenodd" clip-rule="evenodd" d="M38.0613 16.3782V18.9224H41.8775V21.4665H46.5418V24.0107C46.5418 26.3525 44.6434 28.251 42.3016 28.251H41.8775V49.0283H46.5418V55.8127H46.1259C48.464 55.8171 50.3581 57.7139 50.3581 60.053V62.5972H23.2203V60.053C23.2203 57.7139 25.1144 55.8171 27.4525 55.8127H27.0366V49.0283H31.7009V28.251H31.2769C28.935 28.251 27.0366 26.3525 27.0366 24.0107V21.4665H31.7009V18.9224H35.0931V16.3782L32.3369 16.3782V13.41L35.0931 13.41V10.8659H38.0613V13.41L40.8175 13.41V16.3782L38.0613 16.3782Z"/>
</mask>
<path fill-rule="evenodd" clip-rule="evenodd" d="M38.0613 16.3782V18.9224H41.8775V21.4665H46.5418V24.0107C46.5418 26.3525 44.6434 28.251 42.3016 28.251H41.8775V49.0283H46.5418V55.8127H46.1259C48.464 55.8171 50.3581 57.7139 50.3581 60.053V62.5972H23.2203V60.053C23.2203 57.7139 25.1144 55.8171 27.4525 55.8127H27.0366V49.0283H31.7009V28.251H31.2769C28.935 28.251 27.0366 26.3525 27.0366 24.0107V21.4665H31.7009V18.9224H35.0931V16.3782L32.3369 16.3782V13.41L35.0931 13.41V10.8659H38.0613V13.41L40.8175 13.41V16.3782L38.0613 16.3782Z" fill="#4E3510"/>
<path d="M38.0613 18.9224H36.28V20.7036H38.0613V18.9224ZM38.0613 16.3782V14.597L36.28 14.597V16.3782H38.0613ZM41.8775 18.9224H43.6588V17.1411H41.8775V18.9224ZM41.8775 21.4665H40.0963V23.2478H41.8775V21.4665ZM46.5418 21.4665H48.3231V19.6853H46.5418V21.4665ZM41.8775 28.251V26.4697H40.0963V28.251H41.8775ZM41.8775 49.0283H40.0963V50.8096H41.8775V49.0283ZM46.5418 49.0283H48.3231V47.2471H46.5418V49.0283ZM46.5418 55.8127V57.594H48.3231V55.8127H46.5418ZM46.1259 55.8127V54.0315L46.1226 57.594L46.1259 55.8127ZM50.3581 62.5972V64.3784H52.1393V62.5972H50.3581ZM23.2203 62.5972H21.4391V64.3784H23.2203V62.5972ZM27.4525 55.8127L27.4558 57.594L27.4525 54.0315V55.8127ZM27.0366 55.8127H25.2553V57.594H27.0366V55.8127ZM27.0366 49.0283V47.2471H25.2553V49.0283H27.0366ZM31.7009 49.0283V50.8096H33.4821V49.0283H31.7009ZM31.7009 28.251H33.4821V26.4697H31.7009V28.251ZM27.0366 24.0107H28.8178H27.0366ZM27.0366 21.4665V19.6853H25.2553V21.4665H27.0366ZM31.7009 21.4665V23.2478H33.4821V21.4665H31.7009ZM31.7009 18.9224V17.1411H29.9196V18.9224H31.7009ZM35.0931 18.9224V20.7036H36.8744V18.9224H35.0931ZM35.0931 16.3782H36.8744V14.597L35.0931 14.597V16.3782ZM32.3369 16.3782H30.5557V18.1595H32.3369L32.3369 16.3782ZM32.3369 13.41V11.6288L30.5557 11.6288V13.41H32.3369ZM35.0931 13.41L35.0931 15.1913H36.8744V13.41H35.0931ZM35.0931 10.8659V9.08462H33.3119V10.8659H35.0931ZM38.0613 10.8659H39.8425V9.08462H38.0613V10.8659ZM38.0613 13.41H36.28V15.1913H38.0613L38.0613 13.41ZM40.8175 13.41H42.5987V11.6288L40.8175 11.6288V13.41ZM40.8175 16.3782V18.1595L42.5987 18.1595V16.3782H40.8175ZM39.8425 18.9224V16.3782H36.28V18.9224H39.8425ZM41.8775 17.1411H38.0613V20.7036H41.8775V17.1411ZM43.6588 21.4665V18.9224H40.0963V21.4665H43.6588ZM46.5418 19.6853H41.8775V23.2478H46.5418V19.6853ZM48.3231 24.0107V21.4665H44.7606V24.0107H48.3231ZM42.3016 30.0322C45.6272 30.0322 48.3231 27.3363 48.3231 24.0107H44.7606C44.7606 25.3688 43.6596 26.4697 42.3016 26.4697V30.0322ZM41.8775 30.0322H42.3016V26.4697H41.8775V30.0322ZM43.6588 49.0283V28.251H40.0963V49.0283H43.6588ZM46.5418 47.2471H41.8775V50.8096H46.5418V47.2471ZM48.3231 55.8127V49.0283H44.7606V55.8127H48.3231ZM46.1259 57.594H46.5418V54.0315H46.1259V57.594ZM52.1393 60.053C52.1393 56.7313 49.4496 54.0377 46.1293 54.0315L46.1226 57.594C47.4784 57.5965 48.5768 58.6965 48.5768 60.053H52.1393ZM52.1393 62.5972V60.053H48.5768V62.5972H52.1393ZM23.2203 64.3784H50.3581V60.8159H23.2203V64.3784ZM21.4391 60.053V62.5972H25.0016V60.053H21.4391ZM27.4491 54.0315C24.1288 54.0377 21.4391 56.7313 21.4391 60.053H25.0016C25.0016 58.6965 26.1 57.5965 27.4558 57.594L27.4491 54.0315ZM27.0366 57.594H27.4525V54.0315H27.0366V57.594ZM25.2553 49.0283V55.8127H28.8178V49.0283H25.2553ZM31.7009 47.2471H27.0366V50.8096H31.7009V47.2471ZM29.9196 28.251V49.0283H33.4821V28.251H29.9196ZM31.2769 30.0322H31.7009V26.4697H31.2769V30.0322ZM25.2553 24.0107C25.2553 27.3363 27.9513 30.0322 31.2769 30.0322V26.4697C29.9188 26.4697 28.8178 25.3688 28.8178 24.0107H25.2553ZM25.2553 21.4665V24.0107H28.8178V21.4665H25.2553ZM31.7009 19.6853H27.0366V23.2478H31.7009V19.6853ZM29.9196 18.9224V21.4665H33.4821V18.9224H29.9196ZM35.0931 17.1411H31.7009V20.7036H35.0931V17.1411ZM33.3118 16.3782V18.9224H36.8744V16.3782H33.3118ZM35.0931 14.597L32.3369 14.597L32.3369 18.1595L35.0931 18.1595L35.0931 14.597ZM34.1182 16.3782V13.41H30.5557V16.3782H34.1182ZM32.3369 15.1913L35.0931 15.1913L35.0931 11.6288L32.3369 11.6288L32.3369 15.1913ZM33.3119 10.8659V13.41H36.8744V10.8659H33.3119ZM38.0613 9.08462H35.0931V12.6471H38.0613V9.08462ZM39.8425 13.41V10.8659H36.28V13.41H39.8425ZM38.0613 15.1913L40.8175 15.1913V11.6288L38.0613 11.6288L38.0613 15.1913ZM39.0362 13.41V16.3782H42.5987V13.41H39.0362ZM40.8175 14.597L38.0613 14.597L38.0613 18.1595L40.8175 18.1595V14.597Z" fill="#E3941E" mask="url(#path-1-outside-1)"/>
</svg>
