<svg width="62" height="62" viewBox="6 5 62 62" fill="none" xmlns="http://www.w3.org/2000/svg">
<mask id="path-1-outside-1" maskUnits="userSpaceOnUse" x="20.4703" y="8.11588" width="31" height="56" fill="black">
<rect fill="white" x="20.4703" y="8.11588" width="31" height="56"/>
<path fill-rule="evenodd" clip-rule="evenodd" d="M37.3113 15.6282V18.1724H41.1275V20.7166H45.7918V23.2607C45.7918 25.6026 43.8934 27.501 41.5516 27.501H41.1275V48.2783H45.7918V55.0628H45.3736C47.7127 55.0659 49.6081 56.9631 49.6081 59.303V61.8472H22.4703V59.303C22.4703 56.9631 24.3657 55.0659 26.7049 55.0628H26.2866V48.2783H30.9509V27.501H30.5269C28.185 27.501 26.2866 25.6026 26.2866 23.2607V20.7166H30.9509V18.1724H34.3431V15.6282L31.5869 15.6282V12.66L34.3431 12.66V10.1159L37.3113 10.1159V12.66L40.0675 12.66V15.6282L37.3113 15.6282Z"/>
</mask>
<path fill-rule="evenodd" clip-rule="evenodd" d="M37.3113 15.6282V18.1724H41.1275V20.7166H45.7918V23.2607C45.7918 25.6026 43.8934 27.501 41.5516 27.501H41.1275V48.2783H45.7918V55.0628H45.3736C47.7127 55.0659 49.6081 56.9631 49.6081 59.303V61.8472H22.4703V59.303C22.4703 56.9631 24.3657 55.0659 26.7049 55.0628H26.2866V48.2783H30.9509V27.501H30.5269C28.185 27.501 26.2866 25.6026 26.2866 23.2607V20.7166H30.9509V18.1724H34.3431V15.6282L31.5869 15.6282V12.66L34.3431 12.66V10.1159L37.3113 10.1159V12.66L40.0675 12.66V15.6282L37.3113 15.6282Z" fill="#591431"/>
<path d="M37.3113 18.1724H35.53V19.9536H37.3113V18.1724ZM37.3113 15.6282V13.847L35.53 13.847V15.6282H37.3113ZM41.1275 18.1724H42.9088V16.3911H41.1275V18.1724ZM41.1275 20.7166H39.3463V22.4978H41.1275V20.7166ZM45.7918 20.7166H47.5731V18.9353H45.7918V20.7166ZM41.1275 27.501V25.7197H39.3463V27.501H41.1275ZM41.1275 48.2783H39.3463V50.0596H41.1275V48.2783ZM45.7918 48.2783H47.5731V46.4971H45.7918V48.2783ZM45.7918 55.0628V56.844H47.5731V55.0628H45.7918ZM45.3736 55.0628V53.2815L45.3712 56.844L45.3736 55.0628ZM49.6081 61.8472V63.6284H51.3893V61.8472H49.6081ZM22.4703 61.8472H20.6891V63.6284H22.4703V61.8472ZM26.7049 55.0628L26.7072 56.844L26.7049 53.2815V55.0628ZM26.2866 55.0628H24.5053V56.844H26.2866V55.0628ZM26.2866 48.2783V46.4971H24.5053V48.2783H26.2866ZM30.9509 48.2783V50.0596H32.7321V48.2783H30.9509ZM30.9509 27.501H32.7321V25.7197H30.9509V27.501ZM26.2866 23.2607H28.0678H26.2866ZM26.2866 20.7166V18.9353H24.5053V20.7166H26.2866ZM30.9509 20.7166V22.4978H32.7321V20.7166H30.9509ZM30.9509 18.1724V16.3911H29.1696V18.1724H30.9509ZM34.3431 18.1724V19.9536H36.1244V18.1724H34.3431ZM34.3431 15.6282H36.1244V13.847L34.3431 13.847V15.6282ZM31.5869 15.6282H29.8057V17.4095L31.5869 17.4095L31.5869 15.6282ZM31.5869 12.66V10.8788L29.8057 10.8788V12.66H31.5869ZM34.3431 12.66L34.3431 14.4413H36.1244V12.66H34.3431ZM34.3431 10.1159V8.33463L32.5619 8.33463V10.1159H34.3431ZM37.3113 10.1159H39.0925V8.33463L37.3113 8.33463V10.1159ZM37.3113 12.66H35.53V14.4413L37.3113 14.4413L37.3113 12.66ZM40.0675 12.66H41.8487V10.8788L40.0675 10.8788V12.66ZM40.0675 15.6282V17.4095H41.8487V15.6282H40.0675ZM39.0925 18.1724V15.6282H35.53V18.1724H39.0925ZM41.1275 16.3911H37.3113V19.9536H41.1275V16.3911ZM42.9088 20.7166V18.1724H39.3463V20.7166H42.9088ZM45.7918 18.9353H41.1275V22.4978H45.7918V18.9353ZM47.5731 23.2607V20.7166H44.0106V23.2607H47.5731ZM41.5516 29.2822C44.8772 29.2822 47.5731 26.5863 47.5731 23.2607H44.0106C44.0106 24.6188 42.9096 25.7197 41.5516 25.7197V29.2822ZM41.1275 29.2822H41.5516V25.7197H41.1275V29.2822ZM42.9088 48.2783V27.501H39.3463V48.2783H42.9088ZM45.7918 46.4971H41.1275V50.0596H45.7918V46.4971ZM47.5731 55.0628V48.2783H44.0106V55.0628H47.5731ZM45.3736 56.844H45.7918V53.2815H45.3736V56.844ZM51.3893 59.303C51.3893 55.9801 48.6978 53.2859 45.3759 53.2815L45.3712 56.844C46.7277 56.8458 47.8268 57.9461 47.8268 59.303H51.3893ZM51.3893 61.8472V59.303H47.8268V61.8472H51.3893ZM22.4703 63.6284H49.6081V60.0659H22.4703V63.6284ZM20.6891 59.303V61.8472H24.2516V59.303H20.6891ZM26.7025 53.2815C23.3806 53.2859 20.6891 55.9801 20.6891 59.303H24.2516C24.2516 57.9461 25.3507 56.8458 26.7072 56.844L26.7025 53.2815ZM26.2866 56.844H26.7049V53.2815H26.2866V56.844ZM24.5053 48.2783V55.0628H28.0678V48.2783H24.5053ZM30.9509 46.4971H26.2866V50.0596H30.9509V46.4971ZM29.1696 27.501V48.2783H32.7321V27.501H29.1696ZM30.5269 29.2822H30.9509V25.7197H30.5269V29.2822ZM24.5053 23.2607C24.5053 26.5863 27.2013 29.2822 30.5269 29.2822V25.7197C29.1688 25.7197 28.0678 24.6188 28.0678 23.2607H24.5053ZM24.5053 20.7166V23.2607H28.0678V20.7166H24.5053ZM30.9509 18.9353H26.2866V22.4978H30.9509V18.9353ZM29.1696 18.1724V20.7166H32.7321V18.1724H29.1696ZM34.3431 16.3911H30.9509V19.9536H34.3431V16.3911ZM32.5618 15.6282V18.1724H36.1244V15.6282H32.5618ZM34.3431 13.847L31.5869 13.847L31.5869 17.4095L34.3431 17.4095L34.3431 13.847ZM33.3682 15.6282V12.66H29.8057V15.6282H33.3682ZM31.5869 14.4413H34.3431L34.3431 10.8788L31.5869 10.8788L31.5869 14.4413ZM32.5619 10.1159V12.66H36.1244V10.1159H32.5619ZM37.3113 8.33463L34.3431 8.33463V11.8971L37.3113 11.8971V8.33463ZM39.0925 12.66V10.1159H35.53V12.66H39.0925ZM37.3113 14.4413H40.0675V10.8788L37.3113 10.8788L37.3113 14.4413ZM38.2862 12.66V15.6282H41.8487V12.66H38.2862ZM40.0675 13.847L37.3113 13.847L37.3113 17.4095L40.0675 17.4095V13.847Z" fill="#EC5092" mask="url(#path-1-outside-1)"/>
</svg>
