<svg width="72" height="72" viewBox="0 0 72 72" fill="none" xmlns="http://www.w3.org/2000/svg">
<mask id="path-1-outside-1" maskUnits="userSpaceOnUse" x="20.5953" y="8.89367" width="35" height="55" fill="black">
<rect fill="white" x="20.5953" y="8.89367" width="35" height="55"/>
<path fill-rule="evenodd" clip-rule="evenodd" d="M28.9472 44.3918L31.0759 46.0643V48.2081H26.4116V54.9925H26.8321C24.4919 54.9944 22.5953 56.8921 22.5953 59.2328V61.7769H49.7331V59.2328C49.7331 56.8921 47.8365 54.9944 45.4963 54.9925H45.9168V48.2081H41.6766V46.8579C44.1836 45.667 45.9168 43.1117 45.9168 40.1515C45.9168 38.5819 45.4295 37.1262 44.5979 35.9272L44.6362 35.9113L39.3359 29.1268H46.2881C46.986 30.0296 48.0796 30.6109 49.309 30.6109C51.4167 30.6109 53.1253 28.9023 53.1253 26.7947C53.1253 25.3151 52.2833 24.0322 51.0523 23.399L42.3041 15.982C43.1521 15.6428 43.2228 11.6004 43.1521 10.8937H37.4278H36.3677C25.343 13.0986 24.8483 29.4802 25.979 36.1233V44.3918H28.9472Z"/>
</mask>
<path fill-rule="evenodd" clip-rule="evenodd" d="M28.9472 44.3918L31.0759 46.0643V48.2081H26.4116V54.9925H26.8321C24.4919 54.9944 22.5953 56.8921 22.5953 59.2328V61.7769H49.7331V59.2328C49.7331 56.8921 47.8365 54.9944 45.4963 54.9925H45.9168V48.2081H41.6766V46.8579C44.1836 45.667 45.9168 43.1117 45.9168 40.1515C45.9168 38.5819 45.4295 37.1262 44.5979 35.9272L44.6362 35.9113L39.3359 29.1268H46.2881C46.986 30.0296 48.0796 30.6109 49.309 30.6109C51.4167 30.6109 53.1253 28.9023 53.1253 26.7947C53.1253 25.3151 52.2833 24.0322 51.0523 23.399L42.3041 15.982C43.1521 15.6428 43.2228 11.6004 43.1521 10.8937H37.4278H36.3677C25.343 13.0986 24.8483 29.4802 25.979 36.1233V44.3918H28.9472Z" fill="#4E3510"/>
<path d="M31.0759 46.0643H32.8571V45.1986L32.1764 44.6637L31.0759 46.0643ZM28.9472 44.3918L30.0477 42.9912L29.5633 42.6106H28.9472V44.3918ZM31.0759 48.2081V49.9893H32.8571V48.2081H31.0759ZM26.4116 48.2081V46.4268H24.6303V48.2081H26.4116ZM26.4116 54.9925H24.6303V56.7737H26.4116V54.9925ZM26.8321 54.9925L26.8335 56.7737L26.8321 53.2112V54.9925ZM22.5953 61.7769H20.8141V63.5582H22.5953V61.7769ZM49.7331 61.7769V63.5582H51.5143V61.7769H49.7331ZM45.4963 54.9925V53.2112L45.4949 56.7737L45.4963 54.9925ZM45.9168 54.9925V56.7737H47.6981V54.9925H45.9168ZM45.9168 48.2081H47.6981V46.4268H45.9168V48.2081ZM41.6766 48.2081H39.8953V49.9893H41.6766V48.2081ZM41.6766 46.8579L40.9122 45.249L39.8953 45.7321V46.8579H41.6766ZM44.5979 35.9272L43.9128 34.283L41.8777 35.1309L43.1343 36.9425L44.5979 35.9272ZM44.6362 35.9113L45.3213 37.5555L47.4789 36.6565L46.0399 34.8147L44.6362 35.9113ZM39.3359 29.1268V27.3456H35.6839L37.9322 30.2235L39.3359 29.1268ZM46.2881 29.1268L47.6973 28.0373L47.1625 27.3456H46.2881V29.1268ZM51.0523 23.399L49.9004 24.7576L50.0561 24.8896L50.2375 24.9829L51.0523 23.399ZM42.3041 15.982L41.6425 14.3281L38.8952 15.4271L41.1522 17.3407L42.3041 15.982ZM43.1521 10.8937L44.9245 10.7164L44.7641 9.11242H43.1521V10.8937ZM36.3677 10.8937V9.11242H36.1913L36.0184 9.14701L36.3677 10.8937ZM25.979 36.1233H27.7603V35.9728L27.735 35.8244L25.979 36.1233ZM25.979 44.3918H24.1978V46.1731H25.979V44.3918ZM32.1764 44.6637L30.0477 42.9912L27.8467 45.7924L29.9754 47.465L32.1764 44.6637ZM32.8571 48.2081V46.0643H29.2946V48.2081H32.8571ZM26.4116 49.9893H31.0759V46.4268H26.4116V49.9893ZM28.1928 54.9925V48.2081H24.6303V54.9925H28.1928ZM26.8321 53.2112H26.4116V56.7737H26.8321V53.2112ZM24.3766 59.2328C24.3766 57.8754 25.4764 56.7748 26.8335 56.7737L26.8306 53.2112C23.5073 53.2139 20.8141 55.9088 20.8141 59.2328H24.3766ZM24.3766 61.7769V59.2328H20.8141V61.7769H24.3766ZM49.7331 59.9957H22.5953V63.5582H49.7331V59.9957ZM47.9518 59.2328V61.7769H51.5143V59.2328H47.9518ZM45.4949 56.7737C46.852 56.7748 47.9518 57.8754 47.9518 59.2328H51.5143C51.5143 55.9088 48.8211 53.2139 45.4978 53.2112L45.4949 56.7737ZM45.9168 53.2112H45.4963V56.7737H45.9168V53.2112ZM44.1356 48.2081V54.9925H47.6981V48.2081H44.1356ZM41.6766 49.9893H45.9168V46.4268H41.6766V49.9893ZM39.8953 46.8579V48.2081H43.4578V46.8579H39.8953ZM44.1356 40.1515C44.1356 42.3984 42.8216 44.342 40.9122 45.249L42.4409 48.4669C45.5455 46.992 47.6981 43.8249 47.6981 40.1515H44.1356ZM43.1343 36.9425C43.7657 37.8528 44.1356 38.9563 44.1356 40.1515H47.6981C47.6981 38.2075 47.0933 36.3995 46.0615 34.912L43.1343 36.9425ZM43.9511 34.267L43.9128 34.283L45.283 37.5715L45.3213 37.5555L43.9511 34.267ZM37.9322 30.2235L43.2326 37.0079L46.0399 34.8147L40.7396 28.0302L37.9322 30.2235ZM46.2881 27.3456H39.3359V30.9081H46.2881V27.3456ZM49.309 28.8297C48.6545 28.8297 48.0724 28.5226 47.6973 28.0373L44.8789 30.2163C45.8996 31.5366 47.5048 32.3922 49.309 32.3922V28.8297ZM51.344 26.7947C51.344 27.9186 50.4329 28.8297 49.309 28.8297V32.3922C52.4004 32.3922 54.9065 29.8861 54.9065 26.7947H51.344ZM50.2375 24.9829C50.8983 25.3229 51.344 26.0083 51.344 26.7947H54.9065C54.9065 24.622 53.6682 22.7415 51.8671 21.815L50.2375 24.9829ZM41.1522 17.3407L49.9004 24.7576L52.2042 22.0403L43.456 14.6233L41.1522 17.3407ZM41.3797 11.0709C41.3796 11.0695 41.3801 11.0751 41.3811 11.0893C41.382 11.103 41.3831 11.1216 41.3842 11.1456C41.3864 11.1938 41.3884 11.2564 41.3898 11.3329C41.3925 11.4859 41.3924 11.6802 41.3878 11.9026C41.3786 12.3495 41.3521 12.8832 41.3003 13.3973C41.247 13.9272 41.1737 14.3659 41.0913 14.6549C41.0491 14.8029 41.0247 14.8384 41.0424 14.8075C41.0535 14.7883 41.0944 14.72 41.1772 14.6348C41.2613 14.5483 41.4129 14.42 41.6425 14.3281L42.9656 17.6358C43.6167 17.3754 43.9672 16.8681 44.1314 16.5824C44.315 16.2627 44.4347 15.9212 44.5173 15.6315C44.6845 15.0451 44.7834 14.3654 44.8449 13.754C44.9663 12.5473 44.976 11.2312 44.9245 10.7164L41.3797 11.0709ZM37.4278 12.6749H43.1521V9.11242H37.4278V12.6749ZM36.3677 12.6749H37.4278V9.11242H36.3677V12.6749ZM27.735 35.8244C27.2037 32.7026 27.0536 27.2072 28.3384 22.2949C29.6311 17.3523 32.2001 13.5437 36.717 12.6403L36.0184 9.14701C29.5106 10.4486 26.3199 15.9332 24.8918 21.3934C23.4558 26.884 23.6237 32.9009 24.223 36.4222L27.735 35.8244ZM27.7603 44.3918V36.1233H24.1978V44.3918H27.7603ZM28.9472 42.6106H25.979V46.1731H28.9472V42.6106Z" fill="#E3941E" mask="url(#path-1-outside-1)"/>
</svg>
