<svg width="62" height="62" viewBox="6 5 62 62" fill="none" xmlns="http://www.w3.org/2000/svg">
<mask id="path-1-outside-1" maskUnits="userSpaceOnUse" x="20.9703" y="8.96393" width="35" height="55" fill="black">
<rect fill="white" x="20.9703" y="8.96393" width="35" height="55"/>
<path fill-rule="evenodd" clip-rule="evenodd" d="M29.3222 44.4621L31.4509 46.1346V48.2783H26.7866V55.0628H27.2077C24.8672 55.0643 22.9703 56.9621 22.9703 59.303V61.8472H50.1081V59.303C50.1081 56.9621 48.2112 55.0643 45.8707 55.0628H46.2918V48.2783H42.0516V46.9282C44.5586 45.7372 46.2918 43.1819 46.2918 40.2218C46.2918 38.6522 45.8045 37.1964 44.9729 35.9975L45.0112 35.9815L39.7109 29.1971H46.6631C47.361 30.0999 48.4546 30.6812 49.684 30.6812C51.7917 30.6812 53.5003 28.9726 53.5003 26.8649C53.5003 25.3854 52.6583 24.1025 51.4273 23.4692L42.6791 16.0523C43.5271 15.713 43.5978 11.6706 43.5271 10.9639H37.8028H36.7427C25.718 13.1689 25.2233 29.5504 26.354 36.1935V44.4621H29.3222Z"/>
</mask>
<path fill-rule="evenodd" clip-rule="evenodd" d="M29.3222 44.4621L31.4509 46.1346V48.2783H26.7866V55.0628H27.2077C24.8672 55.0643 22.9703 56.9621 22.9703 59.303V61.8472H50.1081V59.303C50.1081 56.9621 48.2112 55.0643 45.8707 55.0628H46.2918V48.2783H42.0516V46.9282C44.5586 45.7372 46.2918 43.1819 46.2918 40.2218C46.2918 38.6522 45.8045 37.1964 44.9729 35.9975L45.0112 35.9815L39.7109 29.1971H46.6631C47.361 30.0999 48.4546 30.6812 49.684 30.6812C51.7917 30.6812 53.5003 28.9726 53.5003 26.8649C53.5003 25.3854 52.6583 24.1025 51.4273 23.4692L42.6791 16.0523C43.5271 15.713 43.5978 11.6706 43.5271 10.9639H37.8028H36.7427C25.718 13.1689 25.2233 29.5504 26.354 36.1935V44.4621H29.3222Z" fill="#591431"/>
<path d="M31.4509 46.1346H33.2321V45.2688L32.5514 44.734L31.4509 46.1346ZM29.3222 44.4621L30.4227 43.0614L29.9383 42.6808H29.3222V44.4621ZM31.4509 48.2783V50.0596H33.2321V48.2783H31.4509ZM26.7866 48.2783V46.4971H25.0053V48.2783H26.7866ZM26.7866 55.0628H25.0053V56.844H26.7866V55.0628ZM27.2077 55.0628L27.2089 56.844L27.2077 53.2815V55.0628ZM22.9703 61.8472H21.1891V63.6284H22.9703V61.8472ZM50.1081 61.8472V63.6284H51.8893V61.8472H50.1081ZM45.8707 55.0628V53.2815L45.8695 56.844L45.8707 55.0628ZM46.2918 55.0628V56.844H48.0731V55.0628H46.2918ZM46.2918 48.2783H48.0731V46.4971H46.2918V48.2783ZM42.0516 48.2783H40.2703V50.0596H42.0516V48.2783ZM42.0516 46.9282L41.2872 45.3192L40.2703 45.8023V46.9282H42.0516ZM44.9729 35.9975L44.2878 34.3533L42.2527 35.2012L43.5093 37.0127L44.9729 35.9975ZM45.0112 35.9815L45.6963 37.6258L47.8539 36.7268L46.4149 34.8849L45.0112 35.9815ZM39.7109 29.1971V27.4158H36.0589L38.3072 30.2937L39.7109 29.1971ZM46.6631 29.1971L48.0723 28.1076L47.5375 27.4158H46.6631V29.1971ZM51.4273 23.4692L50.2754 24.8279L50.4311 24.9599L50.6125 25.0532L51.4273 23.4692ZM42.6791 16.0523L42.0175 14.3984L39.2702 15.4974L41.5272 17.4109L42.6791 16.0523ZM43.5271 10.9639L45.2995 10.7867L45.1391 9.18268H43.5271V10.9639ZM36.7427 10.9639V9.18268H36.5663L36.3934 9.21727L36.7427 10.9639ZM26.354 36.1935H28.1353V36.043L28.11 35.8946L26.354 36.1935ZM26.354 44.4621H24.5728V46.2433H26.354V44.4621ZM32.5514 44.734L30.4227 43.0614L28.2217 45.8627L30.3504 47.5352L32.5514 44.734ZM33.2321 48.2783V46.1346H29.6696V48.2783H33.2321ZM26.7866 50.0596H31.4509V46.4971H26.7866V50.0596ZM28.5678 55.0628V48.2783H25.0053V55.0628H28.5678ZM27.2077 53.2815H26.7866V56.844H27.2077V53.2815ZM24.7516 59.303C24.7516 57.9455 25.8516 56.8449 27.2089 56.844L27.2066 53.2815C23.8828 53.2837 21.1891 55.9788 21.1891 59.303H24.7516ZM24.7516 61.8472V59.303H21.1891V61.8472H24.7516ZM50.1081 60.0659H22.9703V63.6284H50.1081V60.0659ZM48.3268 59.303V61.8472H51.8893V59.303H48.3268ZM45.8695 56.844C47.2268 56.8449 48.3268 57.9455 48.3268 59.303H51.8893C51.8893 55.9788 49.1956 53.2837 45.8719 53.2815L45.8695 56.844ZM46.2918 53.2815H45.8707V56.844H46.2918V53.2815ZM44.5106 48.2783V55.0628H48.0731V48.2783H44.5106ZM42.0516 50.0596H46.2918V46.4971H42.0516V50.0596ZM40.2703 46.9282V48.2783H43.8328V46.9282H40.2703ZM44.5106 40.2218C44.5106 42.4687 43.1966 44.4122 41.2872 45.3192L42.8159 48.5371C45.9205 47.0622 48.0731 43.8952 48.0731 40.2218H44.5106ZM43.5093 37.0127C44.1407 37.9231 44.5106 39.0266 44.5106 40.2218H48.0731C48.0731 38.2778 47.4683 36.4697 46.4365 34.9823L43.5093 37.0127ZM44.3261 34.3373L44.2878 34.3533L45.658 37.6417L45.6963 37.6258L44.3261 34.3373ZM38.3072 30.2937L43.6076 37.0781L46.4149 34.8849L41.1146 28.1005L38.3072 30.2937ZM46.6631 27.4158H39.7109V30.9783H46.6631V27.4158ZM49.684 28.8999C49.0295 28.8999 48.4474 28.5929 48.0723 28.1076L45.2539 30.2866C46.2746 31.6069 47.8798 32.4624 49.684 32.4624V28.8999ZM51.719 26.8649C51.719 27.9888 50.8079 28.8999 49.684 28.8999V32.4624C52.7754 32.4624 55.2815 29.9564 55.2815 26.8649H51.719ZM50.6125 25.0532C51.2733 25.3931 51.719 26.0785 51.719 26.8649H55.2815C55.2815 24.6922 54.0432 22.8118 52.2421 21.8853L50.6125 25.0532ZM41.5272 17.4109L50.2754 24.8279L52.5792 22.1106L43.831 14.6936L41.5272 17.4109ZM41.7547 11.1412C41.7546 11.1397 41.7551 11.1453 41.7561 11.1595C41.757 11.1732 41.7581 11.1919 41.7592 11.2158C41.7614 11.2641 41.7634 11.3267 41.7648 11.4032C41.7675 11.5562 41.7674 11.7504 41.7628 11.9728C41.7536 12.4197 41.7271 12.9535 41.6753 13.4676C41.622 13.9975 41.5487 14.4361 41.4663 14.7252C41.4241 14.8732 41.3997 14.9087 41.4174 14.8778C41.4285 14.8586 41.4694 14.7903 41.5522 14.7051C41.6363 14.6186 41.7879 14.4903 42.0175 14.3984L43.3406 17.7061C43.9917 17.4457 44.3422 16.9384 44.5064 16.6526C44.69 16.3329 44.8097 15.9915 44.8923 15.7018C45.0595 15.1154 45.1584 14.4356 45.2199 13.8242C45.3413 12.6176 45.351 11.3015 45.2995 10.7867L41.7547 11.1412ZM37.8028 12.7452H43.5271V9.18268H37.8028V12.7452ZM36.7427 12.7452H37.8028V9.18268H36.7427V12.7452ZM28.11 35.8946C27.5787 32.7729 27.4286 27.2774 28.7134 22.3652C30.0061 17.4226 32.5751 13.614 37.092 12.7106L36.3934 9.21727C29.8856 10.5188 26.6949 16.0035 25.2668 21.4637C23.8308 26.9542 23.9987 32.9711 24.598 36.4924L28.11 35.8946ZM28.1353 44.4621V36.1935H24.5728V44.4621H28.1353ZM29.3222 42.6808H26.354V46.2433H29.3222V42.6808Z" fill="#EC5092" mask="url(#path-1-outside-1)"/>
</svg>
