<svg width="62" height="62" viewBox="6 5 62 62" fill="none" xmlns="http://www.w3.org/2000/svg">
<mask id="path-1-outside-1" maskUnits="userSpaceOnUse" x="20.7203" y="7.51782" width="31" height="57" fill="black">
<rect fill="white" x="20.7203" y="7.51782" width="31" height="57"/>
<path fill-rule="evenodd" clip-rule="evenodd" d="M44.3457 17.3623C44.3457 19.6513 43.3653 21.7113 41.8016 23.1453V25.2068H43.3403V29.4471H41.8016V48.5283H46.0418V55.3128H45.6213C47.9615 55.3147 49.8581 57.2124 49.8581 59.553V62.0972H22.7203V59.553C22.7203 57.2124 24.6169 55.3147 26.9571 55.3128H26.5366V48.5283H31.2009V29.4471H29.5935V25.2068H31.2009V23.1453C29.6371 21.7113 28.6567 19.6513 28.6567 17.3623C28.6567 13.0299 32.1688 9.51782 36.5012 9.51782C40.8336 9.51782 44.3457 13.0299 44.3457 17.3623Z"/>
</mask>
<path fill-rule="evenodd" clip-rule="evenodd" d="M44.3457 17.3623C44.3457 19.6513 43.3653 21.7113 41.8016 23.1453V25.2068H43.3403V29.4471H41.8016V48.5283H46.0418V55.3128H45.6213C47.9615 55.3147 49.8581 57.2124 49.8581 59.553V62.0972H22.7203V59.553C22.7203 57.2124 24.6169 55.3147 26.9571 55.3128H26.5366V48.5283H31.2009V29.4471H29.5935V25.2068H31.2009V23.1453C29.6371 21.7113 28.6567 19.6513 28.6567 17.3623C28.6567 13.0299 32.1688 9.51782 36.5012 9.51782C40.8336 9.51782 44.3457 13.0299 44.3457 17.3623Z" fill="#591431"/>
<path d="M41.8016 23.1453L40.5977 21.8325L40.0203 22.362V23.1453H41.8016ZM41.8016 25.2068H40.0203V26.9881H41.8016V25.2068ZM43.3403 25.2068H45.1215V23.4256H43.3403V25.2068ZM43.3403 29.4471V31.2283H45.1215V29.4471H43.3403ZM41.8016 29.4471V27.6658H40.0203V29.4471H41.8016ZM41.8016 48.5283H40.0203V50.3096H41.8016V48.5283ZM46.0418 48.5283H47.8231V46.7471H46.0418V48.5283ZM46.0418 55.3128V57.094H47.8231V55.3128H46.0418ZM45.6213 55.3128V53.5315L45.6199 57.094L45.6213 55.3128ZM49.8581 62.0972V63.8784H51.6393V62.0972H49.8581ZM22.7203 62.0972H20.9391V63.8784H22.7203V62.0972ZM26.9571 55.3128L26.9585 57.094L26.9571 53.5315V55.3128ZM26.5366 55.3128H24.7553V57.094H26.5366V55.3128ZM26.5366 48.5283V46.7471H24.7553V48.5283H26.5366ZM31.2009 48.5283V50.3096H32.9821V48.5283H31.2009ZM31.2009 29.4471H32.9821V27.6658H31.2009V29.4471ZM29.5935 29.4471H27.8122V31.2283H29.5935V29.4471ZM29.5935 25.2068V23.4256H27.8122V25.2068H29.5935ZM31.2009 25.2068V26.9881H32.9821V25.2068H31.2009ZM31.2009 23.1453H32.9821V22.362L32.4048 21.8325L31.2009 23.1453ZM43.0055 24.4582C44.9217 22.7009 46.127 20.1711 46.127 17.3623H42.5645C42.5645 19.1315 41.809 20.7217 40.5977 21.8325L43.0055 24.4582ZM43.5828 25.2068V23.1453H40.0203V25.2068H43.5828ZM41.8016 26.9881H43.3403V23.4256H41.8016V26.9881ZM41.559 25.2068V29.4471H45.1215V25.2068H41.559ZM43.3403 27.6658H41.8016V31.2283H43.3403V27.6658ZM43.5828 48.5283V29.4471H40.0203V48.5283H43.5828ZM46.0418 46.7471H41.8016V50.3096H46.0418V46.7471ZM47.8231 55.3128V48.5283H44.2606V55.3128H47.8231ZM45.6213 57.094H46.0418V53.5315H45.6213V57.094ZM51.6393 59.553C51.6393 56.2291 48.9461 53.5342 45.6228 53.5315L45.6199 57.094C46.977 57.0951 48.0768 58.1956 48.0768 59.553H51.6393ZM51.6393 62.0972V59.553H48.0768V62.0972H51.6393ZM22.7203 63.8784H49.8581V60.3159H22.7203V63.8784ZM20.9391 59.553V62.0972H24.5016V59.553H20.9391ZM26.9556 53.5315C23.6323 53.5342 20.9391 56.2291 20.9391 59.553H24.5016C24.5016 58.1956 25.6014 57.0951 26.9585 57.094L26.9556 53.5315ZM26.5366 57.094H26.9571V53.5315H26.5366V57.094ZM24.7553 48.5283V55.3128H28.3178V48.5283H24.7553ZM31.2009 46.7471H26.5366V50.3096H31.2009V46.7471ZM29.4196 29.4471V48.5283H32.9821V29.4471H29.4196ZM31.2009 27.6658H29.5935V31.2283H31.2009V27.6658ZM31.3747 29.4471V25.2068H27.8122V29.4471H31.3747ZM29.5935 26.9881H31.2009V23.4256H29.5935V26.9881ZM29.4196 23.1453V25.2068H32.9821V23.1453H29.4196ZM26.8755 17.3623C26.8755 20.1711 28.0808 22.7009 29.997 24.4582L32.4048 21.8325C31.1934 20.7217 30.438 19.1315 30.438 17.3623H26.8755ZM36.5012 7.73657C31.1851 7.73657 26.8755 12.0462 26.8755 17.3623H30.438C30.438 14.0137 33.1526 11.2991 36.5012 11.2991V7.73657ZM46.127 17.3623C46.127 12.0462 41.8174 7.73657 36.5012 7.73657V11.2991C39.8499 11.2991 42.5645 14.0137 42.5645 17.3623H46.127Z" fill="#EC5092" mask="url(#path-1-outside-1)"/>
</svg>
