<svg width="62" height="62" viewBox="6 5 62 62" fill="none" xmlns="http://www.w3.org/2000/svg">
<mask id="path-1-outside-1" maskUnits="userSpaceOnUse" x="20.4703" y="7.3225" width="31" height="57" fill="black">
<rect fill="white" x="20.4703" y="7.3225" width="31" height="57"/>
<path fill-rule="evenodd" clip-rule="evenodd" d="M44.0957 17.167C44.0957 19.456 43.1153 21.516 41.5516 22.95V25.0115H43.0903V29.2518H41.5516V48.333H45.7918V55.1174H45.3713C47.7115 55.1193 49.6081 57.017 49.6081 59.3577V61.9019H22.4703V59.3577C22.4703 57.017 24.3669 55.1193 26.7071 55.1174H26.2866V48.333H30.9509V29.2518H29.3435V25.0115H30.9509V22.95C29.3871 21.516 28.4067 19.456 28.4067 17.167C28.4067 12.8346 31.9188 9.3225 36.2512 9.3225C40.5836 9.3225 44.0957 12.8346 44.0957 17.167Z"/>
</mask>
<path fill-rule="evenodd" clip-rule="evenodd" d="M44.0957 17.167C44.0957 19.456 43.1153 21.516 41.5516 22.95V25.0115H43.0903V29.2518H41.5516V48.333H45.7918V55.1174H45.3713C47.7115 55.1193 49.6081 57.017 49.6081 59.3577V61.9019H22.4703V59.3577C22.4703 57.017 24.3669 55.1193 26.7071 55.1174H26.2866V48.333H30.9509V29.2518H29.3435V25.0115H30.9509V22.95C29.3871 21.516 28.4067 19.456 28.4067 17.167C28.4067 12.8346 31.9188 9.3225 36.2512 9.3225C40.5836 9.3225 44.0957 12.8346 44.0957 17.167Z" fill="#4E3510"/>
<path d="M41.5516 22.95L40.3477 21.6372L39.7703 22.1667V22.95H41.5516ZM41.5516 25.0115H39.7703V26.7928H41.5516V25.0115ZM43.0903 25.0115H44.8715V23.2303H43.0903V25.0115ZM43.0903 29.2518V31.033H44.8715V29.2518H43.0903ZM41.5516 29.2518V27.4705H39.7703V29.2518H41.5516ZM41.5516 48.333H39.7703V50.1142H41.5516V48.333ZM45.7918 48.333H47.5731V46.5517H45.7918V48.333ZM45.7918 55.1174V56.8987H47.5731V55.1174H45.7918ZM45.3713 55.1174V53.3362L45.3699 56.8987L45.3713 55.1174ZM49.6081 61.9019V63.6831H51.3893V61.9019H49.6081ZM22.4703 61.9019H20.6891V63.6831H22.4703V61.9019ZM26.7071 55.1174L26.7085 56.8987L26.7071 53.3362V55.1174ZM26.2866 55.1174H24.5053V56.8987H26.2866V55.1174ZM26.2866 48.333V46.5517H24.5053V48.333H26.2866ZM30.9509 48.333V50.1142H32.7321V48.333H30.9509ZM30.9509 29.2518H32.7321V27.4705H30.9509V29.2518ZM29.3435 29.2518H27.5622V31.033H29.3435V29.2518ZM29.3435 25.0115V23.2303H27.5622V25.0115H29.3435ZM30.9509 25.0115V26.7928H32.7321V25.0115H30.9509ZM30.9509 22.95H32.7321V22.1666L32.1548 21.6372L30.9509 22.95ZM42.7554 24.2628C44.6717 22.5056 45.877 19.9758 45.877 17.167H42.3145C42.3145 18.9362 41.559 20.5264 40.3477 21.6372L42.7554 24.2628ZM43.3328 25.0115V22.95H39.7703V25.0115H43.3328ZM41.5516 26.7928H43.0903V23.2303H41.5516V26.7928ZM41.309 25.0115V29.2518H44.8715V25.0115H41.309ZM43.0903 27.4705H41.5516V31.033H43.0903V27.4705ZM43.3328 48.333V29.2518H39.7703V48.333H43.3328ZM45.7918 46.5517H41.5516V50.1142H45.7918V46.5517ZM47.5731 55.1174V48.333H44.0106V55.1174H47.5731ZM45.3713 56.8987H45.7918V53.3362H45.3713V56.8987ZM51.3893 59.3577C51.3893 56.0338 48.6961 53.3389 45.3728 53.3362L45.3699 56.8987C46.727 56.8998 47.8268 58.0003 47.8268 59.3577H51.3893ZM51.3893 61.9019V59.3577H47.8268V61.9019H51.3893ZM22.4703 63.6831H49.6081V60.1206H22.4703V63.6831ZM20.6891 59.3577V61.9019H24.2516V59.3577H20.6891ZM26.7056 53.3362C23.3823 53.3389 20.6891 56.0338 20.6891 59.3577H24.2516C24.2516 58.0003 25.3514 56.8998 26.7085 56.8987L26.7056 53.3362ZM26.2866 56.8987H26.7071V53.3362H26.2866V56.8987ZM24.5053 48.333V55.1174H28.0678V48.333H24.5053ZM30.9509 46.5517H26.2866V50.1142H30.9509V46.5517ZM29.1696 29.2518V48.333H32.7321V29.2518H29.1696ZM30.9509 27.4705H29.3435V31.033H30.9509V27.4705ZM31.1247 29.2518V25.0115H27.5622V29.2518H31.1247ZM29.3435 26.7928H30.9509V23.2303H29.3435V26.7928ZM29.1696 22.95V25.0115H32.7321V22.95H29.1696ZM26.6255 17.167C26.6255 19.9758 27.8308 22.5056 29.747 24.2628L32.1548 21.6372C30.9434 20.5264 30.188 18.9362 30.188 17.167H26.6255ZM36.2512 7.54125C30.9351 7.54125 26.6255 11.8508 26.6255 17.167H30.188C30.188 13.8184 32.9026 11.1037 36.2512 11.1037V7.54125ZM45.877 17.167C45.877 11.8508 41.5674 7.54125 36.2512 7.54125V11.1037C39.5999 11.1037 42.3145 13.8184 42.3145 17.167H45.877Z" fill="#E3941E" mask="url(#path-1-outside-1)"/>
</svg>
