<svg width="72" height="72" viewBox="0 0 72 72" fill="none" xmlns="http://www.w3.org/2000/svg">
<mask id="path-1-outside-1" maskUnits="userSpaceOnUse" x="21.2203" y="5.41095" width="31" height="59" fill="black">
<rect fill="white" x="21.2203" y="5.41095" width="31" height="59"/>
<path fill-rule="evenodd" clip-rule="evenodd" d="M38.4422 7.41095H35.4141V9.6194C32.9602 10.2187 31.1391 12.4319 31.1391 15.0703C31.1391 16.2173 31.4832 17.2838 32.0738 18.1724H31.7009V20.7166L27.0366 20.7166V23.2607C27.0366 25.6026 28.935 27.501 31.2769 27.501H31.7009V48.2783H27.0366V55.0627L27.4606 55.0628C25.1188 55.0628 23.2203 56.9612 23.2203 59.303V61.8472H50.3581V59.303C50.3581 56.9612 48.4596 55.0628 46.1178 55.0628L46.5418 55.0627V48.2783H41.8775V27.501H42.3016C44.6434 27.501 46.5418 25.6026 46.5418 23.2607V20.7166L41.8775 20.7166V18.1724H41.4262C42.0168 17.2838 42.3609 16.2173 42.3609 15.0703C42.3609 12.5612 40.714 10.4368 38.4422 9.71906V7.41095Z"/>
</mask>
<path fill-rule="evenodd" clip-rule="evenodd" d="M38.4422 7.41095H35.4141V9.6194C32.9602 10.2187 31.1391 12.4319 31.1391 15.0703C31.1391 16.2173 31.4832 17.2838 32.0738 18.1724H31.7009V20.7166L27.0366 20.7166V23.2607C27.0366 25.6026 28.935 27.501 31.2769 27.501H31.7009V48.2783H27.0366V55.0627L27.4606 55.0628C25.1188 55.0628 23.2203 56.9612 23.2203 59.303V61.8472H50.3581V59.303C50.3581 56.9612 48.4596 55.0628 46.1178 55.0628L46.5418 55.0627V48.2783H41.8775V27.501H42.3016C44.6434 27.501 46.5418 25.6026 46.5418 23.2607V20.7166L41.8775 20.7166V18.1724H41.4262C42.0168 17.2838 42.3609 16.2173 42.3609 15.0703C42.3609 12.5612 40.714 10.4368 38.4422 9.71906V7.41095Z" fill="#591431"/>
<path d="M35.4141 7.41095V5.6297H33.6328V7.41095H35.4141ZM38.4422 7.41095H40.2234V5.6297H38.4422V7.41095ZM35.4141 9.6194L35.8367 11.3498L37.1953 11.018V9.6194H35.4141ZM32.0738 18.1724V19.9536H35.3967L33.5573 17.1863L32.0738 18.1724ZM31.7009 18.1724V16.3911H29.9196V18.1724H31.7009ZM31.7009 20.7166L31.7009 22.4978H33.4821V20.7166H31.7009ZM27.0366 20.7166L27.0366 18.9353L25.2553 18.9353V20.7166H27.0366ZM27.0366 23.2607H28.8178H27.0366ZM31.2769 27.501L31.2768 29.2822H31.2769V27.501ZM31.7009 27.501H33.4821V25.7197H31.7009V27.501ZM31.7009 48.2783V50.0596H33.4821V48.2783H31.7009ZM27.0366 48.2783V46.4971H25.2553V48.2783H27.0366ZM27.0366 55.0627H25.2553V56.844L27.0366 56.844L27.0366 55.0627ZM27.4606 55.0628V56.844L27.4606 53.2815L27.4606 55.0628ZM23.2203 61.8472H21.4391V63.6284H23.2203V61.8472ZM50.3581 61.8472V63.6284H52.1393V61.8472H50.3581ZM46.1178 55.0628L46.1178 53.2815L46.1178 56.844V55.0628ZM46.5418 55.0627L46.5418 56.844L48.3231 56.844V55.0627H46.5418ZM46.5418 48.2783H48.3231V46.4971H46.5418V48.2783ZM41.8775 48.2783H40.0963V50.0596H41.8775V48.2783ZM41.8775 27.501V25.7197H40.0963V27.501H41.8775ZM46.5418 20.7166H48.3231V18.9353H46.5418V20.7166ZM41.8775 20.7166H40.0963V22.4978H41.8775V20.7166ZM41.8775 18.1724H43.6588V16.3911H41.8775V18.1724ZM41.4262 18.1724L39.9428 17.1863L38.1033 19.9536H41.4262V18.1724ZM38.4422 9.71906H36.6609V11.0243L37.9056 11.4176L38.4422 9.71906ZM35.4141 9.1922H38.4422V5.6297H35.4141V9.1922ZM37.1953 9.6194V7.41095H33.6328V9.6194H37.1953ZM34.9914 7.88902C31.7587 8.67859 29.3578 11.5919 29.3578 15.0703H32.9203C32.9203 13.2718 34.1618 11.7589 35.8367 11.3498L34.9914 7.88902ZM29.3578 15.0703C29.3578 16.5788 29.8116 17.9867 30.5904 19.1584L33.5573 17.1863C33.1548 16.5809 32.9203 15.8557 32.9203 15.0703H29.3578ZM32.0738 16.3911H31.7009V19.9536H32.0738V16.3911ZM29.9196 18.1724V20.7166H33.4821V18.1724H29.9196ZM31.7009 18.9353L27.0366 18.9353L27.0366 22.4978L31.7009 22.4978L31.7009 18.9353ZM25.2553 20.7166V23.2607H28.8178V20.7166H25.2553ZM25.2553 23.2607C25.2553 26.5863 27.9513 29.2822 31.2768 29.2822L31.2769 25.7197C29.9188 25.7197 28.8178 24.6188 28.8178 23.2607H25.2553ZM31.2769 29.2822H31.7009V25.7197H31.2769V29.2822ZM29.9196 27.501V48.2783H33.4821V27.501H29.9196ZM31.7009 46.4971H27.0366V50.0596H31.7009V46.4971ZM25.2553 48.2783V55.0627H28.8178V48.2783H25.2553ZM27.0366 56.844L27.4606 56.844L27.4606 53.2815L27.0366 53.2815L27.0366 56.844ZM27.4606 53.2815C24.135 53.2815 21.4391 55.9774 21.4391 59.303H25.0016C25.0016 57.9449 26.1025 56.844 27.4606 56.844V53.2815ZM21.4391 59.303V61.8472H25.0016V59.303H21.4391ZM23.2203 63.6284H50.3581V60.0659H23.2203V63.6284ZM52.1393 61.8472V59.303H48.5768V61.8472H52.1393ZM52.1393 59.303C52.1393 55.9774 49.4434 53.2815 46.1178 53.2815V56.844C47.4759 56.844 48.5768 57.9449 48.5768 59.303H52.1393ZM46.1178 56.844L46.5418 56.844L46.5418 53.2815L46.1178 53.2815L46.1178 56.844ZM48.3231 55.0627V48.2783H44.7606V55.0627H48.3231ZM46.5418 46.4971H41.8775V50.0596H46.5418V46.4971ZM43.6588 48.2783V27.501H40.0963V48.2783H43.6588ZM41.8775 29.2822H42.3016V25.7197H41.8775V29.2822ZM42.3016 29.2822C45.6272 29.2822 48.3231 26.5863 48.3231 23.2607H44.7606C44.7606 24.6188 43.6596 25.7197 42.3016 25.7197V29.2822ZM48.3231 23.2607V20.7166H44.7606V23.2607H48.3231ZM46.5418 18.9353L41.8775 18.9353V22.4978L46.5418 22.4978V18.9353ZM43.6588 20.7166V18.1724H40.0963V20.7166H43.6588ZM41.8775 16.3911H41.4262V19.9536H41.8775V16.3911ZM42.9096 19.1584C43.6884 17.9867 44.1422 16.5788 44.1422 15.0703H40.5797C40.5797 15.8557 40.3452 16.5809 39.9428 17.1863L42.9096 19.1584ZM44.1422 15.0703C44.1422 11.762 41.9702 8.96561 38.9788 8.02056L37.9056 11.4176C39.4579 11.908 40.5797 13.3605 40.5797 15.0703H44.1422ZM36.6609 7.41095V9.71906H40.2234V7.41095H36.6609Z" fill="#EC5092" mask="url(#path-1-outside-1)"/>
</svg>
