<svg width="62" height="62" viewBox="6 5 62 62" fill="none" xmlns="http://www.w3.org/2000/svg">
<mask id="path-1-outside-1" maskUnits="userSpaceOnUse" x="20.4703" y="6.16093" width="31" height="59" fill="black">
<rect fill="white" x="20.4703" y="6.16093" width="31" height="59"/>
<path fill-rule="evenodd" clip-rule="evenodd" d="M37.6922 8.16093H34.6641V10.3694C32.2102 10.9687 30.3891 13.1818 30.3891 15.8203C30.3891 16.9672 30.7332 18.0338 31.3238 18.9224H30.9509V21.4665L26.2866 21.4665V24.0107C26.2866 26.3525 28.185 28.251 30.5269 28.251H30.9509V49.0283H26.2866V55.8127H26.7106C24.3688 55.8127 22.4703 57.7112 22.4703 60.053V62.5972H49.6081V60.053C49.6081 57.7112 47.7096 55.8127 45.3678 55.8127H45.7918V49.0283H41.1275V28.251H41.5516C43.8934 28.251 45.7918 26.3525 45.7918 24.0107V21.4665L41.1275 21.4665V18.9224H40.6762C41.2668 18.0338 41.6109 16.9672 41.6109 15.8203C41.6109 13.3112 39.964 11.1868 37.6922 10.469V8.16093Z"/>
</mask>
<path fill-rule="evenodd" clip-rule="evenodd" d="M37.6922 8.16093H34.6641V10.3694C32.2102 10.9687 30.3891 13.1818 30.3891 15.8203C30.3891 16.9672 30.7332 18.0338 31.3238 18.9224H30.9509V21.4665L26.2866 21.4665V24.0107C26.2866 26.3525 28.185 28.251 30.5269 28.251H30.9509V49.0283H26.2866V55.8127H26.7106C24.3688 55.8127 22.4703 57.7112 22.4703 60.053V62.5972H49.6081V60.053C49.6081 57.7112 47.7096 55.8127 45.3678 55.8127H45.7918V49.0283H41.1275V28.251H41.5516C43.8934 28.251 45.7918 26.3525 45.7918 24.0107V21.4665L41.1275 21.4665V18.9224H40.6762C41.2668 18.0338 41.6109 16.9672 41.6109 15.8203C41.6109 13.3112 39.964 11.1868 37.6922 10.469V8.16093Z" fill="#4E3510"/>
<path d="M34.6641 8.16093V6.37968H32.8828V8.16093H34.6641ZM37.6922 8.16093H39.4734V6.37968H37.6922V8.16093ZM34.6641 10.3694L35.0867 12.0998L36.4453 11.7679V10.3694H34.6641ZM31.3238 18.9224V20.7036H34.6467L32.8073 17.9363L31.3238 18.9224ZM30.9509 18.9224V17.1411H29.1696V18.9224H30.9509ZM30.9509 21.4665L30.9509 23.2478H32.7321V21.4665H30.9509ZM26.2866 21.4665L26.2866 19.6853L24.5053 19.6853V21.4665H26.2866ZM26.2866 24.0107H28.0678H26.2866ZM30.9509 28.251H32.7321V26.4697H30.9509V28.251ZM30.9509 49.0283V50.8096H32.7321V49.0283H30.9509ZM26.2866 49.0283V47.247H24.5053V49.0283H26.2866ZM26.2866 55.8127H24.5053V57.594H26.2866V55.8127ZM22.4703 62.5972H20.6891V64.3784H22.4703V62.5972ZM49.6081 62.5972V64.3784H51.3893V62.5972H49.6081ZM45.7918 55.8127V57.594H47.5731V55.8127H45.7918ZM45.7918 49.0283H47.5731V47.247H45.7918V49.0283ZM41.1275 49.0283H39.3463V50.8096H41.1275V49.0283ZM41.1275 28.251V26.4697H39.3463V28.251H41.1275ZM45.7918 21.4665H47.5731V19.6853H45.7918V21.4665ZM41.1275 21.4665H39.3463V23.2478H41.1275V21.4665ZM41.1275 18.9224H42.9088V17.1411H41.1275V18.9224ZM40.6762 18.9224L39.1928 17.9363L37.3533 20.7036H40.6762V18.9224ZM37.6922 10.469H35.9109V11.7743L37.1556 12.1676L37.6922 10.469ZM34.6641 9.94218H37.6922V6.37968H34.6641V9.94218ZM36.4453 10.3694V8.16093H32.8828V10.3694H36.4453ZM34.2414 8.639C31.0087 9.42858 28.6078 12.3419 28.6078 15.8203H32.1703C32.1703 14.0218 33.4118 12.5089 35.0867 12.0998L34.2414 8.639ZM28.6078 15.8203C28.6078 17.3288 29.0616 18.7367 29.8404 19.9084L32.8073 17.9363C32.4048 17.3309 32.1703 16.6057 32.1703 15.8203H28.6078ZM31.3238 17.1411H30.9509V20.7036H31.3238V17.1411ZM29.1696 18.9224V21.4665H32.7321V18.9224H29.1696ZM30.9509 19.6853L26.2866 19.6853L26.2866 23.2478L30.9509 23.2478L30.9509 19.6853ZM24.5053 21.4665V24.0107H28.0678V21.4665H24.5053ZM24.5053 24.0107C24.5053 27.3363 27.2013 30.0322 30.5269 30.0322V26.4697C29.1688 26.4697 28.0678 25.3688 28.0678 24.0107H24.5053ZM30.5269 30.0322H30.9509V26.4697H30.5269V30.0322ZM29.1696 28.251V49.0283H32.7321V28.251H29.1696ZM30.9509 47.247H26.2866V50.8096H30.9509V47.247ZM24.5053 49.0283V55.8127H28.0678V49.0283H24.5053ZM26.2866 57.594H26.7106V54.0315H26.2866V57.594ZM26.7106 54.0315C23.385 54.0315 20.6891 56.7274 20.6891 60.053H24.2516C24.2516 58.6949 25.3525 57.594 26.7106 57.594V54.0315ZM20.6891 60.053V62.5972H24.2516V60.053H20.6891ZM22.4703 64.3784H49.6081V60.8159H22.4703V64.3784ZM51.3893 62.5972V60.053H47.8268V62.5972H51.3893ZM51.3893 60.053C51.3893 56.7274 48.6934 54.0315 45.3678 54.0315V57.594C46.7259 57.594 47.8268 58.6949 47.8268 60.053H51.3893ZM45.3678 57.594H45.7918V54.0315H45.3678V57.594ZM47.5731 55.8127V49.0283H44.0106V55.8127H47.5731ZM45.7918 47.247H41.1275V50.8096H45.7918V47.247ZM42.9088 49.0283V28.251H39.3463V49.0283H42.9088ZM41.1275 30.0322H41.5516V26.4697H41.1275V30.0322ZM41.5516 30.0322C44.8772 30.0322 47.5731 27.3363 47.5731 24.0107H44.0106C44.0106 25.3688 42.9096 26.4697 41.5516 26.4697V30.0322ZM47.5731 24.0107V21.4665H44.0106V24.0107H47.5731ZM45.7918 19.6853L41.1275 19.6853V23.2478L45.7918 23.2478V19.6853ZM42.9088 21.4665V18.9224H39.3463V21.4665H42.9088ZM41.1275 17.1411H40.6762V20.7036H41.1275V17.1411ZM42.1596 19.9084C42.9384 18.7367 43.3922 17.3288 43.3922 15.8203H39.8297C39.8297 16.6057 39.5952 17.3309 39.1928 17.9363L42.1596 19.9084ZM43.3922 15.8203C43.3922 12.512 41.2202 9.7156 38.2288 8.77055L37.1556 12.1676C38.7079 12.6579 39.8297 14.1104 39.8297 15.8203H43.3922ZM35.9109 8.16093V10.469H39.4734V8.16093H35.9109Z" fill="#E3941E" mask="url(#path-1-outside-1)"/>
</svg>
