<svg width="72" height="72" viewBox="0 0 72 72" fill="none" xmlns="http://www.w3.org/2000/svg">
<mask id="path-1-outside-1" maskUnits="userSpaceOnUse" x="21.2203" y="7.69183" width="31" height="56" fill="black">
<rect fill="white" x="21.2203" y="7.69183" width="31" height="56"/>
<path fill-rule="evenodd" clip-rule="evenodd" d="M46.5418 18.1724L46.5418 22.4126H42.3015V48.2783H46.5418V55.0627H46.1236C48.4627 55.0658 50.3581 56.9631 50.3581 59.303V61.8472H23.2203V59.303C23.2203 56.9631 25.1157 55.0658 27.4549 55.0627H27.0366V48.2783H31.7009V22.4126H27.0366L27.0366 18.1724L27.0366 9.69183L32.1249 9.69183V14.7801H34.245V9.69183L39.3334 9.69183V14.7801H41.4535V9.69183L46.5418 9.69183L46.5418 14.7801L46.5418 18.1724Z"/>
</mask>
<path fill-rule="evenodd" clip-rule="evenodd" d="M46.5418 18.1724L46.5418 22.4126H42.3015V48.2783H46.5418V55.0627H46.1236C48.4627 55.0658 50.3581 56.9631 50.3581 59.303V61.8472H23.2203V59.303C23.2203 56.9631 25.1157 55.0658 27.4549 55.0627H27.0366V48.2783H31.7009V22.4126H27.0366L27.0366 18.1724L27.0366 9.69183L32.1249 9.69183V14.7801H34.245V9.69183L39.3334 9.69183V14.7801H41.4535V9.69183L46.5418 9.69183L46.5418 14.7801L46.5418 18.1724Z" fill="#591431"/>
<path d="M46.5418 22.4126V24.1939H48.3231V22.4126L46.5418 22.4126ZM46.5418 18.1724L48.3231 18.1724V18.1724L46.5418 18.1724ZM42.3015 22.4126V20.6314H40.5203V22.4126H42.3015ZM42.3015 48.2783H40.5203V50.0595H42.3015V48.2783ZM46.5418 48.2783H48.3231V46.497H46.5418V48.2783ZM46.5418 55.0627V56.844H48.3231V55.0627H46.5418ZM46.1236 55.0627V53.2815L46.1212 56.844L46.1236 55.0627ZM50.3581 61.8472V63.6284H52.1393V61.8472H50.3581ZM23.2203 61.8472H21.4391V63.6284H23.2203V61.8472ZM27.4549 55.0627L27.4572 56.844L27.4549 53.2815V55.0627ZM27.0366 55.0627H25.2553V56.844H27.0366V55.0627ZM27.0366 48.2783V46.497H25.2553V48.2783H27.0366ZM31.7009 48.2783V50.0595H33.4821V48.2783H31.7009ZM31.7009 22.4126H33.4821V20.6314H31.7009V22.4126ZM27.0366 22.4126L25.2553 22.4126L25.2553 24.1939H27.0366V22.4126ZM27.0366 18.1724H25.2553V18.1724L27.0366 18.1724ZM27.0366 9.69183V7.91058H25.2553L25.2553 9.69183L27.0366 9.69183ZM32.1249 9.69183H33.9061V7.91058L32.1249 7.91058V9.69183ZM32.1249 14.7801H30.3436V16.5614H32.1249V14.7801ZM34.245 14.7801V16.5614H36.0263V14.7801H34.245ZM34.245 9.69183V7.91058H32.4638V9.69183H34.245ZM39.3334 9.69183H41.1146V7.91058L39.3334 7.91058V9.69183ZM39.3334 14.7801H37.5521V16.5614H39.3334V14.7801ZM41.4535 14.7801V16.5614H43.2348V14.7801H41.4535ZM41.4535 9.69183V7.91058H39.6723V9.69183H41.4535ZM46.5418 9.69183L48.3231 9.69183V7.91058L46.5418 7.91058V9.69183ZM46.5418 14.7801L44.7606 14.7801V14.7801L46.5418 14.7801ZM48.3231 22.4126L48.3231 18.1724L44.7606 18.1724L44.7606 22.4126L48.3231 22.4126ZM42.3015 24.1939H46.5418V20.6314H42.3015V24.1939ZM44.0828 48.2783V22.4126H40.5203V48.2783H44.0828ZM46.5418 46.497H42.3015V50.0595H46.5418V46.497ZM48.3231 55.0627V48.2783H44.7606V55.0627H48.3231ZM46.1236 56.844H46.5418V53.2815H46.1236V56.844ZM52.1393 59.303C52.1393 55.9801 49.4478 53.2859 46.1259 53.2815L46.1212 56.844C47.4777 56.8458 48.5768 57.946 48.5768 59.303H52.1393ZM52.1393 61.8472V59.303H48.5768V61.8472H52.1393ZM23.2203 63.6284H50.3581V60.0659H23.2203V63.6284ZM21.4391 59.303V61.8472H25.0016V59.303H21.4391ZM27.4525 53.2815C24.1306 53.2859 21.4391 55.9801 21.4391 59.303H25.0016C25.0016 57.946 26.1007 56.8458 27.4572 56.844L27.4525 53.2815ZM27.0366 56.844H27.4549V53.2815H27.0366V56.844ZM25.2553 48.2783V55.0627H28.8178V48.2783H25.2553ZM31.7009 46.497H27.0366V50.0595H31.7009V46.497ZM29.9196 22.4126V48.2783H33.4821V22.4126H29.9196ZM27.0366 24.1939H31.7009V20.6314H27.0366V24.1939ZM25.2553 18.1724L25.2553 22.4126L28.8178 22.4126L28.8178 18.1724L25.2553 18.1724ZM25.2553 9.69183L25.2553 18.1724H28.8178L28.8178 9.69183L25.2553 9.69183ZM32.1249 7.91058L27.0366 7.91058L27.0366 11.4731L32.1249 11.4731V7.91058ZM33.9061 14.7801V9.69183H30.3436V14.7801H33.9061ZM34.245 12.9989H32.1249V16.5614H34.245V12.9989ZM36.0263 14.7801V9.69183H32.4638V14.7801H36.0263ZM34.245 11.4731L39.3334 11.4731V7.91058L34.245 7.91058V11.4731ZM37.5521 9.69183V14.7801H41.1146V9.69183H37.5521ZM41.4535 12.9989H39.3334V16.5614H41.4535V12.9989ZM39.6723 9.69183V14.7801H43.2348V9.69183H39.6723ZM46.5418 7.91058L41.4535 7.91058V11.4731L46.5418 11.4731V7.91058ZM48.3231 14.7801L48.3231 9.69183L44.7606 9.69183L44.7606 14.7801L48.3231 14.7801ZM48.3231 18.1724L48.3231 14.7801L44.7606 14.7801L44.7606 18.1724L48.3231 18.1724Z" fill="#EC5092" mask="url(#path-1-outside-1)"/>
</svg>
