<svg width="62" height="62" viewBox="6 5 62 62" fill="none" xmlns="http://www.w3.org/2000/svg">
<mask id="path-1-outside-1" maskUnits="userSpaceOnUse" x="20.8453" y="7.62159" width="31" height="56" fill="black">
<rect fill="white" x="20.8453" y="7.62159" width="31" height="56"/>
<path fill-rule="evenodd" clip-rule="evenodd" d="M46.1668 18.1021L46.1668 22.3424H41.9266V48.2081L46.1668 48.2081V54.9925H45.7428C48.0846 54.9925 49.9831 56.8909 49.9831 59.2328V61.7769H22.8453V59.2328C22.8453 56.8909 24.7438 54.9925 27.0856 54.9925H26.6616V48.2081L31.3259 48.2081V22.3424H26.6616V14.7099H26.6616L26.6616 9.62159H31.7499L31.7499 14.7099H33.8701V9.62159H38.9584V14.7099H41.0785V9.62159H46.1668V18.1021Z"/>
</mask>
<path fill-rule="evenodd" clip-rule="evenodd" d="M46.1668 18.1021L46.1668 22.3424H41.9266V48.2081L46.1668 48.2081V54.9925H45.7428C48.0846 54.9925 49.9831 56.8909 49.9831 59.2328V61.7769H22.8453V59.2328C22.8453 56.8909 24.7438 54.9925 27.0856 54.9925H26.6616V48.2081L31.3259 48.2081V22.3424H26.6616V14.7099H26.6616L26.6616 9.62159H31.7499L31.7499 14.7099H33.8701V9.62159H38.9584V14.7099H41.0785V9.62159H46.1668V18.1021Z" fill="#4E3510"/>
<path d="M46.1668 22.3424V24.1237H47.9481L47.9481 22.3424L46.1668 22.3424ZM46.1668 18.1021L47.9481 18.1021V18.1021H46.1668ZM41.9266 22.3424V20.5612H40.1453V22.3424H41.9266ZM41.9266 48.2081H40.1453V49.9893H41.9266V48.2081ZM46.1668 48.2081H47.9481V46.4268H46.1668L46.1668 48.2081ZM46.1668 54.9925V56.7737H47.9481V54.9925H46.1668ZM49.9831 61.7769V63.5582H51.7643V61.7769H49.9831ZM22.8453 61.7769H21.0641V63.5582H22.8453V61.7769ZM26.6616 54.9925H24.8803V56.7737H26.6616V54.9925ZM26.6616 48.2081L26.6616 46.4268H24.8803V48.2081H26.6616ZM31.3259 48.2081L31.3259 49.9893H33.1071V48.2081H31.3259ZM31.3259 22.3424H33.1071V20.5612H31.3259V22.3424ZM26.6616 22.3424H24.8803V24.1237H26.6616V22.3424ZM26.6616 14.7099V12.9287H24.8803V14.7099H26.6616ZM26.6616 14.7099V16.4912H28.4428V14.7099H26.6616ZM26.6616 9.62159V7.84034H24.8803L24.8803 9.62159L26.6616 9.62159ZM31.7499 9.62159L33.5312 9.62159V7.84034H31.7499V9.62159ZM31.7499 14.7099L29.9687 14.7099L29.9687 16.4912H31.7499V14.7099ZM33.8701 14.7099V16.4912H35.6513V14.7099H33.8701ZM33.8701 9.62159V7.84034H32.0888V9.62159H33.8701ZM38.9584 9.62159H40.7396V7.84034H38.9584V9.62159ZM38.9584 14.7099H37.1771V16.4912H38.9584V14.7099ZM41.0785 14.7099V16.4912H42.8598V14.7099H41.0785ZM41.0785 9.62159V7.84034H39.2973V9.62159H41.0785ZM46.1668 9.62159H47.9481V7.84034H46.1668V9.62159ZM47.9481 22.3424L47.9481 18.1021L44.3856 18.1021L44.3856 22.3424L47.9481 22.3424ZM41.9266 24.1237H46.1668V20.5612H41.9266V24.1237ZM43.7078 48.2081V22.3424H40.1453V48.2081H43.7078ZM46.1668 46.4268L41.9266 46.4268L41.9266 49.9893L46.1668 49.9893L46.1668 46.4268ZM47.9481 54.9925V48.2081H44.3856V54.9925H47.9481ZM45.7428 56.7737H46.1668V53.2112H45.7428V56.7737ZM51.7643 59.2328C51.7643 55.9072 49.0684 53.2112 45.7428 53.2112V56.7737C47.1009 56.7737 48.2018 57.8747 48.2018 59.2328H51.7643ZM51.7643 61.7769V59.2328H48.2018V61.7769H51.7643ZM22.8453 63.5582H49.9831V59.9957H22.8453V63.5582ZM21.0641 59.2328V61.7769H24.6266V59.2328H21.0641ZM27.0856 53.2112C23.76 53.2112 21.0641 55.9072 21.0641 59.2328H24.6266C24.6266 57.8747 25.7275 56.7737 27.0856 56.7737V53.2112ZM26.6616 56.7737H27.0856V53.2112H26.6616V56.7737ZM24.8803 48.2081V54.9925H28.4428V48.2081H24.8803ZM31.3259 46.4268L26.6616 46.4268L26.6616 49.9893L31.3259 49.9893L31.3259 46.4268ZM29.5446 22.3424V48.2081H33.1071V22.3424H29.5446ZM26.6616 24.1237H31.3259V20.5612H26.6616V24.1237ZM24.8803 14.7099V22.3424H28.4428V14.7099H24.8803ZM26.6616 12.9287H26.6616V16.4912H26.6616V12.9287ZM24.8803 9.62159L24.8803 14.7099H28.4428V9.62159L24.8803 9.62159ZM31.7499 7.84034H26.6616V11.4028H31.7499V7.84034ZM33.5312 14.7099L33.5312 9.62159L29.9687 9.62159L29.9687 14.7099L33.5312 14.7099ZM33.8701 12.9287H31.7499V16.4912H33.8701V12.9287ZM35.6513 14.7099V9.62159H32.0888V14.7099H35.6513ZM33.8701 11.4028H38.9584V7.84034H33.8701V11.4028ZM37.1771 9.62159V14.7099H40.7396V9.62159H37.1771ZM41.0785 12.9287H38.9584V16.4912H41.0785V12.9287ZM39.2973 9.62159V14.7099H42.8598V9.62159H39.2973ZM46.1668 7.84034H41.0785V11.4028H46.1668V7.84034ZM47.9481 18.1021V9.62159H44.3856V18.1021H47.9481Z" fill="#E3941E" mask="url(#path-1-outside-1)"/>
</svg>
